inDegrees=yes
name=ik_Xsens_quaternion
DataType=double
version=3
OpenSimVersion=4.4-2022-07-23-0e9fedc
endheader
time	pelvis_tilt	pelvis_list	pelvis_rotation	pelvis_tx	pelvis_ty	pelvis_tz	hip_flexion_r	hip_adduction_r	hip_rotation_r	knee_angle_r	knee_angle_r_beta	ankle_angle_r	subtalar_angle_r	mtp_angle_r	hip_flexion_l	hip_adduction_l	hip_rotation_l	knee_angle_l	knee_angle_l_beta	ankle_angle_l	subtalar_angle_l	mtp_angle_l	lumbar_extension	lumbar_bending	lumbar_rotation	arm_flex_r	arm_add_r	arm_rot_r	elbow_flex_r	pro_sup_r	wrist_flex_r	wrist_dev_r	arm_flex_l	arm_add_l	arm_rot_l	elbow_flex_l	pro_sup_l	wrist_flex_l	wrist_dev_l
0	-4.783337979020066e-26	1.866024516863425e-17	-5.474868506419952e-26	4.415647930898482e-24	0.93	-4.641644136752383e-21	1.266600823625306e-29	-9.047790860978219e-21	0	0	-8.142718222346033e-19	8.51851802060131e-22	-7.524800202280414e-21	9.587043101578958e-18	-2.684037111181152e-19	1.98191591997982e-26	3.919491896922001e-18	0	-7.872835132590976e-19	1.949904087150661e-20	-1.871755116565128e-16	-1.900316196713701e-16	-6.532643064076943e-26	2.539256119449278e-20	-1.558197787559597e-25	1.119332304199036e-20	-2.142200965886059e-18	-7.140617872376495e-19	-1.295111907544619e-16	9.226653488539352e-18	-5.899290377116524e-17	7.367423575724621e-17	-4.140968714660781e-05	0.006467070925723923	-57.87577083654587	0.00494807225629611	0.003577543941768978	1.711908040376776e-19	-6.921869190657221e-18
0.01666666666666667	0	0	0	0	0.93	0	0	0	0	1.338552419854951e-39	2.29588740394978e-41	0	0	0	0	0	0	6.346052259492732e-41	1.366855097164495e-41	0	0	0	0	0	0	1.119332304199036e-20	-2.142200965886059e-18	-7.140617872376495e-19	-1.295111907544619e-16	9.226653488539352e-18	0	0	0.3745188197588703	-0.07850414621210694	-58.00505002762155	-0.3648172087094307	0.1311516543554009	0	0
0.03333333333333333	0	0	0	0	0.93	0	0	0	0	0	2.29588740394978e-41	0	0	0	0	0	0	0	1.366855097164495e-41	0	0	0	0	0	0	1.119332304199036e-20	-2.142200965886059e-18	-7.140617872376495e-19	-1.295111907544619e-16	9.226653488539352e-18	0	0	0.9544783785254112	-0.1551293080834193	-57.97061529482036	-0.829395472166189	0.1087423944046769	0	0
0.05	0	0	0	0	0.93	0	0	0	0	0	0	0	0	0	0	0	0	0	0	0	0	0	0	0	0	1.119332304199036e-20	-2.142200965886059e-18	-7.140617872376495e-19	-1.295111907544619e-16	9.226653488539352e-18	0	0	1.453075927543253	-0.2143758973720603	-57.89335820018241	-1.182478715376299	0.05826470992449713	0	0
0.06666666666666667	0	0	0	0	0.93	0	0	0	0	0	0	0	0	0	0	0	0	0	0	0	0	0	0	0	0	1.119332304199036e-20	-2.142200965886059e-18	-7.140617872376495e-19	-1.295111907544619e-16	9.226653488539352e-18	0	0	1.799836240048625	-0.2860630072797776	-57.82905743308926	-1.454212335620197	0.002391697611239578	0	0
0.08333333333333333	0	0	0	0	0.93	0	0	0	0	0	5.241540515187501e-23	0	0	0	0	0	0	0	5.241540515187501e-23	0	0	0	0	0	0	1.119332304199036e-20	-2.142200965886059e-18	-7.140617872376495e-19	-1.295111907544619e-16	9.226653488539352e-18	0	0	2.051227240819837	-0.3244225748627226	-57.70754466859224	-1.64347924747029	-0.04993413850208184	0	0
0.1	0	0	0	0	0.93	0	0	0	0	0	0	0	0	0	0	0	0	0	0	0	0	0	0	0	0	1.119332304199036e-20	-2.142200965886059e-18	-7.140617872376495e-19	-1.295111907544619e-16	9.226653488539352e-18	0	0	2.245548467910487	-0.3129962900799081	-57.55577787845385	-1.751236804307206	-0.07542633990260797	0	0
0.1166666666666667	0	0	0	0	0.93	0	0	0	0	0	0	0	0	0	0	0	0	0	0	0	0	0	0	0	0	1.119332304199036e-20	-2.142200965886059e-18	-7.140617872376495e-19	-1.295111907544619e-16	9.226653488539352e-18	0	0	2.418681640592157	-0.2953870720985574	-57.34835625291831	-1.843499383408735	-0.1115416429183801	0	0
0.1333333333333333	0	0	0	0	0.93	0	0	0	0	0	-5.241540515187501e-23	0	0	0	0	0	0	0	-5.241540515187501e-23	0	0	0	0	0	0	1.119332304199036e-20	-2.142200965886059e-18	-7.140617872376495e-19	-1.295111907544619e-16	9.226653488539352e-18	0	0	2.553610378433982	-0.2800598879715654	-57.13439974455364	-1.918434444471168	-0.1318850978780441	0	0
0.15	0	0	0	0	0.93	0	0	0	0	0	0	0	0	0	0	0	0	0	0	0	0	0	0	0	0	1.119332304199036e-20	-2.142200965886059e-18	-7.140617872376495e-19	-1.295111907544619e-16	9.226653488539352e-18	0	0	2.654557156022829	-0.2635434819538074	-56.91430172140731	-1.976438296999361	-0.1455612940009529	0	0
0.1666666666666667	0	0	0	0	0.93	0	0	0	0	0	0	0	0	0	0	0	0	0	0	0	0	0	0	0	0	1.119332304199036e-20	-2.142200965886059e-18	-7.140617872376495e-19	-1.295111907544619e-16	9.226653488539352e-18	0	0	2.744531230775579	-0.2627059316464979	-56.68676940610879	-2.048006833180112	-0.1079585205950135	0	0
